<svg xmlns="http://www.w3.org/2000/svg" viewBox="0 0 14 14">
	<g fill="none">
		<path fill="#d7e0ff" d="m6.839 13.05l-3 .26l.26-3l6.24-6.2a1 1 0 0 1 1.43 0l1.27 1.28a1 1 0 0 1 0 1.42z" />
		<path stroke="#4147d5" stroke-linecap="round" stroke-linejoin="round" d="m6.839 13.05l-3 .26l.26-3l6.24-6.2a1 1 0 0 1 1.43 0l1.27 1.28a1 1 0 0 1 0 1.42z" />
		<path fill="#fff" d="M.928 4.123c-.35-.061-.35-.565 0-.626a3.18 3.18 0 0 0 2.559-2.45L3.508.95c.076-.346.57-.349.649-.002l.026.112a3.19 3.19 0 0 0 2.565 2.436c.353.06.353.567 0 .629A3.19 3.19 0 0 0 4.183 6.56l-.026.113c-.08.346-.573.344-.649-.003l-.021-.097a3.18 3.18 0 0 0-2.559-2.45" />
		<path stroke="#4147d5" stroke-linecap="round" stroke-linejoin="round" d="M.928 4.123c-.35-.061-.35-.565 0-.626a3.18 3.18 0 0 0 2.559-2.45L3.508.95c.076-.346.57-.349.649-.002l.026.112a3.19 3.19 0 0 0 2.565 2.436c.353.06.353.567 0 .629A3.19 3.19 0 0 0 4.183 6.56l-.026.113c-.08.346-.573.344-.649-.003l-.021-.097a3.18 3.18 0 0 0-2.559-2.45" />
	</g>
</svg>
